<?xml version="1.0" encoding="UTF-8" standalone="no"?>
<svg
   xmlns:dc="http://purl.org/dc/elements/1.1/"
   xmlns:cc="http://creativecommons.org/ns#"
   xmlns:rdf="http://www.w3.org/1999/02/22-rdf-syntax-ns#"
   xmlns:svg="http://www.w3.org/2000/svg"
   xmlns="http://www.w3.org/2000/svg"
   id="svg147"
   height="180"
   width="180"
   version="1.1">
  <title
     id="title25">Atom Sass Snippet - Logo</title>
  <metadata
     id="metadata153">
    <rdf:RDF>
      <cc:Work
         rdf:about="">
        <dc:format>image/svg+xml</dc:format>
        <dc:type
           rdf:resource="http://purl.org/dc/dcmitype/StillImage" />
        <dc:title>Atom Sass Snippet - Logo</dc:title>
        <dc:creator>
          <cc:Agent>
            <dc:title>Saran Tanpituckpong</dc:title>
          </cc:Agent>
        </dc:creator>
      </cc:Work>
    </rdf:RDF>
  </metadata>
  <defs
     id="defs151" />
  <g
     transform="translate(-9.9887085,-9.4652634)"
     id="layer2">
    <circle
       r="90"
       cy="99.465263"
       cx="99.988708"
       id="path4637"
       style="fill:#ffd5d5;fill-opacity:1;stroke:none;stroke-width:1.64656091;stroke-opacity:0" />
  </g>
  <g
     transform="translate(-9.9887085,-9.4652634)"
     id="layer3">
    <g
       transform="translate(-0.666667,5.954802)"
       id="g4657">
      <path
         d="m 141.18909,63.301677 c 2.11268,-10.752718 0.93121,-18.913295 -4.0625,-22.15625 -1.66457,-1.080985 -3.66023,-1.554019 -5.90625,-1.46875 -12.12851,0.46045 -31.698321,17.16007 -47.687501,41.78125 -18.950138,29.180653 -25.684504,58.425453 -15.03125,65.343753 5.056946,3.28402 13.115147,0.95604 22.21875,-5.53125"
         style="fill:none;stroke:#66595c;stroke-width:5;stroke-linecap:round"
         id="path139" />
      <path
         d="m 150.90784,111.02043 c 8.99437,-3.48919 14.52504,-8.26501 14.8125,-13.750003 0.6648,-12.68514 -26.94124,-24.42903 -61.6875,-26.25 -3.25746,-0.17072 -6.460591,-0.26054 -9.593751,-0.25 -30.287234,0.10193 -53.928775,8.41034 -54.53125,19.90625 -0.286892,5.47422 4.700484,10.782383 13.25,15.187503"
         style="fill:none;stroke:#66595c;stroke-width:5;stroke-linecap:round"
         id="path141" />
      <path
         d="m 94.220339,44.395427 c -6.153875,-5.105891 -11.925448,-7.847783 -16.5625,-7.5 -1.23461,0.0926 -2.376432,0.396859 -3.4375,0.9375 -11.318054,5.766837 -7.702368,35.59212 8.09375,66.593753 15.79612,31.00163 37.775701,51.45434 49.093751,45.6875 10.8844,-5.54588 7.94666,-33.33775 -6.34375,-63.031253"
         style="fill:none;stroke:#66595c;stroke-width:5;stroke-linecap:round"
         id="path143" />
      <path
         d="m 110.72034,94.864407 a 7.5000005,7.5000005 0 0 1 -15.000001,0 7.5000005,7.5000005 0 1 1 15.000001,0 z"
         style="fill:#66595c"
         id="path145" />
    </g>
  </g>
  <g
     id="layer4">
    <path
       id="path982"
       d="m 110.98978,162.31089 c -1.56611,0.009 -2.92226,0.38498 -4.05966,0.94494 -0.41997,-0.83119 -0.83993,-1.55738 -0.90992,-2.09983 -0.0787,-0.62995 -0.17498,-1.01492 -0.0787,-1.76736 0.0962,-0.75243 0.53371,-1.81984 0.53371,-1.90734 -0.009,-0.0787 -0.0963,-0.4637 -0.99741,-0.47245 -0.90119,-0.009 -1.67986,0.17498 -1.76736,0.41121 -0.0875,0.23624 -0.26248,0.77868 -0.37621,1.33864 -0.15749,0.82243 -1.80236,3.73594 -2.73852,5.26706 -0.30623,-0.59495 -0.56871,-1.11991 -0.62121,-1.53987 -0.0787,-0.62996 -0.17498,-1.01492 -0.0787,-1.76736 0.0962,-0.75243 0.53371,-1.81985 0.53371,-1.90732 -0.009,-0.0787 -0.0962,-0.46372 -0.99742,-0.47247 -0.90118,-0.009 -1.679863,0.17498 -1.767355,0.41122 -0.08749,0.23623 -0.183735,0.79617 -0.376217,1.33863 -0.183736,0.54246 -2.371052,5.40705 -2.939754,6.67568 -0.288726,0.64745 -0.542454,1.16366 -0.726189,1.51362 -0.183735,0.34998 -0.0087,0.0262 -0.02624,0.0611 -0.157489,0.29748 -0.244981,0.46372 -0.244981,0.46372 v 0.009 c -0.122489,0.21873 -0.253728,0.4287 -0.314974,0.4287 -0.04375,0 -0.131238,-0.58619 0.01749,-1.39113 0.323725,-1.68861 1.111157,-4.32214 1.102409,-4.41838 0,-0.0437 0.148736,-0.50745 -0.507458,-0.74368 -0.638696,-0.23623 -0.866178,0.15749 -0.918673,0.15749 -0.0525,0 -0.09625,0.13998 -0.09625,0.13998 0,0 0.708688,-2.966 -1.356138,-2.966 -1.29489,0 -3.079741,1.40863 -3.963416,2.69478 -0.559953,0.30622 -1.749853,0.95366 -3.009748,1.64486 -0.481209,0.26248 -0.979917,0.54246 -1.452377,0.79619 l -0.09623,-0.1052 c -2.502289,-2.66853 -7.130651,-4.55837 -6.938168,-8.14557 0.06999,-1.30363 0.524956,-4.7421 8.889253,-8.90674 6.850675,-3.41223 12.336464,-2.47604 13.290134,-0.39372 1.356132,2.97475 -2.931005,8.50427 -10.052906,9.30046 -2.712273,0.30622 -4.138402,-0.74368 -4.497122,-1.1374 -0.376218,-0.41122 -0.428713,-0.42872 -0.568702,-0.34998 -0.227481,0.1225 -0.0875,0.48996 0,0.7087 0.209982,0.5512 1.084909,1.53113 2.572284,2.02108 1.30364,0.42871 4.488372,0.66494 8.338049,-0.82243 4.313379,-1.67111 7.681849,-6.30822 6.693179,-10.18415 -1.00616,-3.94592 -7.550608,-5.24081 -13.736338,-3.04474 -3.683439,1.31239 -7.673104,3.35972 -10.542863,6.04573 -3.412214,3.18474 -3.954668,5.967 -3.727187,7.12192 0.796183,4.12089 6.474455,6.80692 8.749264,8.79301 -0.11374,0.0611 -0.21873,0.12249 -0.314972,0.17498 -1.137405,0.55995 -5.468291,2.82601 -6.553199,5.22332 -1.224898,2.71226 0.192483,4.66335 1.137403,4.92583 2.922255,0.81368 5.914503,-0.64745 7.533117,-3.05351 1.609865,-2.40603 1.41738,-5.52952 0.673693,-6.95566 l -0.02624,-0.0525 0.892426,-0.52495 c 0.577451,-0.34124 1.146154,-0.6562 1.644861,-0.92743 -0.279976,0.76119 -0.48121,1.66236 -0.5862,2.97476 -0.122491,1.53986 0.507456,3.5347 1.338636,4.32213 0.36747,0.34122 0.804934,0.34997 1.07616,0.34997 0.962419,0 1.399883,-0.79618 1.881092,-1.74985 0.59495,-1.16366 1.119906,-2.51104 1.119906,-2.51104 0,0 -0.656195,3.64844 1.137405,3.64844 0.656193,0 1.312388,-0.84868 1.609865,-1.28614 v 0.009 c 0,0 0.0175,-0.0263 0.0525,-0.0875 0.06999,-0.10497 0.104993,-0.16624 0.104993,-0.16624 v -0.0174 c 0.262479,-0.45497 0.848677,-1.49613 1.723605,-3.21973 1.128655,-2.22233 2.213564,-5.00457 2.213564,-5.00457 0,0 0.104993,0.68243 0.428719,1.80233 0.19248,0.66495 0.61244,1.39114 0.93616,2.09983 -0.26247,0.36746 -0.41996,0.57745 -0.41996,0.57745 l 0.009,0.009 c -0.20999,0.27997 -0.44622,0.57744 -0.69119,0.87491 -0.892429,1.06743 -1.959839,2.28358 -2.099828,2.63354 -0.166234,0.41121 -0.131237,0.71744 0.192485,0.96242 0.23623,0.17498 0.656196,0.20999 1.102407,0.17498 0.804936,-0.0524 1.364886,-0.25373 1.644856,-0.37622 0.43747,-0.15749 0.93617,-0.39371 1.41738,-0.74367 0.87493,-0.64745 1.40864,-1.56613 1.35615,-2.79103 -0.0262,-0.67369 -0.24499,-1.33862 -0.51622,-1.96857 0.0787,-0.11372 0.15749,-0.22749 0.23624,-0.34999 1.38238,-2.02107 2.44979,-4.24338 2.44979,-4.24338 0,0 0.10497,0.68244 0.42871,1.80236 0.16624,0.56868 0.49871,1.18989 0.7962,1.80234 -1.29489,1.05865 -2.10859,2.28355 -2.38857,3.08849 -0.51619,1.48737 -0.11371,2.16107 0.64745,2.31855 0.34122,0.07 0.83118,-0.0875 1.19866,-0.24498 0.45496,-0.14874 1.00616,-0.40246 1.51361,-0.77868 0.87493,-0.64744 1.71487,-1.54863 1.67112,-2.76476 -0.0262,-0.55997 -0.17498,-1.11117 -0.37622,-1.63612 1.1024,-0.45497 2.52853,-0.71745 4.33963,-0.49871 3.89342,0.45497 4.66337,2.88726 4.51462,3.90217 -0.14873,1.01491 -0.96242,1.57487 -1.23365,1.74985 -0.27122,0.16624 -0.35872,0.22749 -0.33247,0.34998 0.035,0.18373 0.15749,0.17498 0.39372,0.13997 0.32372,-0.0524 2.04733,-0.83117 2.11732,-2.70351 0.10497,-2.40604 -2.17857,-5.03084 -6.22948,-5.00458 z M 80.962304,172.4338 c -1.286142,1.40863 -3.097239,1.94234 -3.867175,1.48737 -0.83118,-0.4812 -0.507456,-2.55478 1.07616,-4.05092 0.962419,-0.9099 2.213564,-1.74985 3.035995,-2.26604 0.183733,-0.11371 0.46371,-0.27997 0.796182,-0.48122 0.0525,-0.035 0.0875,-0.0524 0.0875,-0.0524 0.06124,-0.035 0.131239,-0.0787 0.201234,-0.1225 0.586201,2.13482 0.02624,4.00716 -1.329888,5.48579 z m 9.405459,-6.39571 c -0.446211,1.09366 -1.391133,3.90218 -1.959835,3.74469 -0.489958,-0.13126 -0.787433,-2.25731 -0.09624,-4.35713 0.349971,-1.05867 1.093657,-2.31857 1.53112,-2.80853 0.708692,-0.78742 1.478626,-1.04991 1.67111,-0.72617 0.227482,0.41994 -0.866178,3.46469 -1.146153,4.14714 z m 7.760597,3.70969 c -0.192483,0.0963 -0.367468,0.16623 -0.44621,0.11371 -0.06124,-0.035 0.07875,-0.16623 0.07875,-0.16623 0,0 0.97117,-1.04117 1.35614,-1.52237 0.21873,-0.27999 0.4812,-0.6037 0.76118,-0.97118 v 0.10497 c 0,1.25989 -1.2074,2.09982 -1.74985,2.44104 z m 5.9845,-1.36489 c -0.13998,-0.10497 -0.12248,-0.42871 0.34998,-1.44362 0.18372,-0.40247 0.60369,-1.07617 1.32988,-1.71486 0.0875,0.26248 0.14,0.5162 0.13124,0.75243 -0.009,1.57486 -1.12866,2.16108 -1.8111,2.40605 z"
       style="fill:#cf649a;stroke-width:0.08749267" />
  </g>
</svg>
